<?xml version="1.0" standalone="no"?>
<!DOCTYPE svg PUBLIC "-//W3C//DTD SVG 20010904//EN"
 "http://www.w3.org/TR/2001/REC-SVG-20010904/DTD/svg10.dtd">
<svg version="1.0" xmlns="http://www.w3.org/2000/svg"
 width="396.000000pt" height="392.000000pt" viewBox="0 0 396.000000 392.000000"
 preserveAspectRatio="xMidYMid meet">

<g transform="translate(0.000000,392.000000) scale(0.100000,-0.100000)"
fill="#000000" stroke="none">
<path d="M2 3273 c1 -357 4 -615 5 -575 2 39 8 72 13 72 6 0 10 6 10 14 0 7 7
19 15 26 9 8 15 30 15 56 0 42 1 44 29 44 16 0 31 -6 34 -12 2 -7 8 -10 12 -6
5 4 -6 22 -24 39 -33 31 -33 31 -26 100 4 38 11 69 16 69 5 0 9 10 9 21 0 19
4 21 39 15 l38 -6 6 43 c3 23 3 79 1 125 -3 50 -1 82 5 82 5 0 11 -6 14 -12 3
-9 13 -3 31 15 14 15 31 25 36 22 6 -3 10 1 10 9 0 8 -5 18 -10 21 -8 5 -8 11
0 20 9 11 6 12 -12 8 -13 -4 -26 -11 -30 -17 -4 -6 -8 1 -8 17 0 23 5 29 30
34 26 5 30 10 30 39 0 27 -4 34 -20 34 -16 0 -20 7 -20 30 0 30 2 31 43 30 80
-3 149 12 154 31 5 18 39 36 50 26 2 -3 6 -13 7 -24 4 -22 36 -31 36 -9 0 9 7
16 15 16 11 0 15 11 15 40 0 33 3 40 20 40 16 0 20 7 20 30 0 19 5 30 14 30 8
0 18 10 22 23 4 12 10 24 15 27 4 3 10 17 14 32 l7 27 -341 0 -341 1 2 -647z
m472 580 c-5 -5 -12 -12 -16 -18 -4 -6 -8 -2 -8 8 0 9 7 17 17 17 9 0 12 -3 7
-7z m-44 -23 c0 -5 -4 -10 -10 -10 -5 0 -10 -7 -10 -15 0 -9 -9 -15 -25 -15
-14 0 -25 5 -25 10 0 6 7 10 15 10 8 0 15 7 15 15 0 8 9 15 20 15 11 0 20 -4
20 -10z m30 -96 c0 -9 -5 -14 -12 -12 -18 6 -21 28 -4 28 9 0 16 -7 16 -16z"/>
<path d="M3087 3899 c3 -10 9 -19 14 -19 5 0 9 -9 9 -19 0 -10 7 -21 15 -25 8
-3 15 -12 15 -21 0 -9 9 -15 25 -15 14 0 25 -4 25 -10 0 -5 7 -10 15 -10 9 0
15 9 15 24 0 13 5 26 12 28 17 6 1 39 -22 45 -11 3 -20 12 -20 19 0 8 -6 14
-12 15 -99 7 -96 8 -91 -12z"/>
<path d="M3280 3900 c0 -11 6 -20 13 -20 10 0 47 -67 47 -85 0 -3 -13 -5 -30
-5 -23 0 -30 -5 -30 -19 0 -16 8 -20 42 -23 35 -2 45 -8 56 -30 7 -16 18 -28
25 -28 7 0 18 -14 26 -30 12 -28 14 -29 25 -14 10 13 24 16 64 12 28 -3 50 -2
49 3 -1 4 3 8 8 8 6 1 11 -22 12 -51 2 -39 0 -47 -7 -32 -15 37 -30 38 -30 4
0 -24 5 -33 21 -37 19 -5 21 -11 15 -55 -10 -74 2 -138 25 -138 11 0 19 7 19
15 0 8 8 15 18 14 10 0 12 -3 5 -6 -7 -2 -13 -11 -13 -19 0 -8 -10 -14 -25
-14 -20 0 -25 -5 -25 -25 0 -14 5 -25 10 -25 6 0 10 6 10 14 0 17 49 25 80 14
12 -4 24 -17 27 -28 3 -11 13 -20 23 -20 15 0 17 -7 12 -45 -4 -37 -2 -45 12
-45 11 0 16 -9 16 -26 0 -28 21 -54 44 -54 8 0 17 -10 19 -22 3 -14 5 -9 6 15
1 35 3 37 36 37 22 0 41 -8 55 -22 l20 -22 0 412 0 412 -340 0 c-333 0 -340 0
-340 -20z"/>
<path d="M1935 3810 c3 -5 11 -10 16 -10 16 0 97 -39 104 -49 3 -5 -40 6 -96
25 -81 27 -115 34 -172 33 l-72 -1 54 -8 c61 -9 143 -31 138 -36 -2 -3 -39 1
-83 7 -81 11 -154 5 -304 -26 -98 -21 -283 -39 -314 -31 -26 6 -28 10 -24 46
4 46 -8 53 -23 14 -12 -34 -4 -60 27 -81 21 -13 42 -15 122 -10 l97 6 -77 -38
c-42 -21 -94 -52 -115 -68 -21 -17 -64 -47 -97 -68 -54 -34 -63 -37 -114 -33
-48 4 -53 3 -37 -9 11 -7 32 -13 48 -13 30 0 30 0 11 -21 -34 -37 -73 -52
-128 -46 -28 2 -59 8 -68 12 -11 4 -18 3 -18 -5 0 -6 17 -19 39 -28 l39 -17
-95 -62 c-53 -35 -99 -63 -104 -63 -5 0 -9 -4 -9 -10 0 -14 30 -13 98 4 31 8
83 19 115 24 l59 9 -54 -51 c-29 -28 -71 -74 -93 -101 -22 -28 -44 -53 -50
-57 -5 -4 -7 -9 -4 -12 3 -4 37 16 75 42 93 66 124 85 124 79 0 -2 -41 -58
-90 -123 -66 -86 -100 -122 -123 -131 -26 -9 -29 -12 -14 -18 26 -11 59 1 108
38 53 40 149 99 149 92 0 -3 -12 -23 -26 -44 -14 -22 -27 -50 -29 -63 -10 -72
-37 -128 -73 -153 -20 -14 -30 -25 -21 -25 14 0 80 37 153 85 l30 20 -8 -25
c-38 -129 -34 -164 9 -72 18 39 36 72 38 72 3 0 -4 -27 -14 -61 -20 -64 -24
-130 -9 -164 7 -17 9 -15 9 12 2 56 21 48 21 -9 0 -29 5 -60 10 -68 9 -13 10
-13 11 0 1 27 18 -23 18 -57 1 -17 5 -33 9 -35 7 -2 52 -150 52 -171 0 -16
-29 -4 -94 38 -38 25 -75 45 -82 45 -8 0 -28 -13 -46 -29 l-33 -29 0 -129 c1
-119 3 -132 29 -188 41 -89 156 -292 172 -306 9 -7 32 -10 59 -7 25 3 45 4 45
1 0 -2 -7 -18 -16 -35 -9 -16 -11 -27 -5 -24 14 9 14 -21 1 -60 -7 -21 -6 -43
4 -79 8 -27 15 -43 15 -35 3 35 21 -17 21 -60 0 -28 3 -40 9 -32 11 18 21 -7
21 -50 0 -25 3 -28 14 -19 11 9 16 5 26 -19 15 -36 40 -59 41 -39 0 8 7 1 14
-16 8 -16 14 -24 15 -16 0 19 36 -13 61 -54 15 -23 19 -26 19 -11 0 15 4 14
22 -10 12 -16 25 -31 28 -34 3 -3 11 -13 19 -23 12 -15 12 -19 -5 -32 -18 -14
-17 -14 10 -15 28 0 25 -4 -67 -98 -95 -97 -117 -130 -117 -177 0 -28 -58 -64
-278 -171 -73 -35 -131 -68 -128 -73 3 -4 -4 -17 -15 -27 -33 -29 -104 -125
-126 -169 -11 -22 -28 -67 -38 -100 -9 -33 -25 -69 -35 -80 -17 -19 -50 -78
-50 -90 0 -3 263 -5 585 -5 383 0 585 3 585 10 0 6 15 10 33 10 26 1 29 2 15
11 -10 5 -18 17 -18 25 0 14 9 14 75 -3 l20 -5 -20 16 c-11 8 -25 16 -31 16
-6 0 -17 7 -24 15 -16 20 5 20 40 0 23 -12 26 -12 36 8 11 20 13 18 25 -21 6
-23 16 -42 20 -42 5 0 23 29 41 65 32 62 37 67 111 104 42 21 77 35 77 31 0
-39 -117 -171 -175 -196 -16 -7 -24 -13 -17 -14 7 0 35 11 62 25 27 14 52 25
55 25 14 0 -9 -22 -43 -41 -20 -11 -29 -18 -19 -15 10 3 20 0 23 -9 5 -13 38
-15 202 -15 l196 0 27 33 27 32 64 -33 64 -32 347 0 347 0 0 24 c0 32 -24 50
-55 42 -31 -8 -32 1 -4 30 20 21 21 27 10 71 -17 64 -65 154 -114 209 l-40 45
-26 -23 c-14 -12 -11 -7 7 12 l33 35 45 -49 c58 -63 117 -186 147 -306 20 -79
25 -91 34 -75 11 19 12 19 30 2 11 -9 25 -17 31 -17 22 0 12 19 -22 45 -28 21
-39 41 -61 113 -30 97 -80 196 -131 259 -19 23 -34 45 -34 50 0 10 -92 67
-135 83 -33 12 -182 87 -285 143 -59 32 -66 39 -74 77 -7 31 -30 65 -91 133
-45 51 -98 107 -119 124 -20 18 -31 33 -24 33 9 0 9 3 0 12 -14 14 2 48 24 48
10 0 14 6 11 15 -6 13 8 29 25 30 3 0 16 12 28 28 12 15 26 25 31 22 4 -3 11
6 15 20 3 13 10 23 14 20 4 -3 13 9 20 25 7 17 18 30 25 30 6 0 18 19 25 43
14 44 30 70 30 49 0 -7 4 -12 9 -12 5 0 5 16 0 38 -11 49 -11 54 2 46 8 -4 10
8 8 40 -3 34 -1 45 8 41 8 -3 7 6 -4 22 -13 19 -14 25 -4 18 11 -6 13 -4 7 11
-5 10 -10 29 -11 40 -2 12 -8 31 -14 42 -16 29 -14 34 8 22 36 -19 79 -11 114
19 34 30 52 64 141 256 50 108 50 111 50 205 -1 106 -14 156 -51 200 -36 43
-69 40 -133 -12 -29 -24 -63 -52 -76 -62 -13 -11 -27 -17 -30 -13 -4 4 -1 37
5 74 19 102 29 140 30 118 3 -44 20 11 32 105 l12 98 24 -27 c20 -21 23 -22
18 -6 -11 30 -24 99 -19 104 2 2 12 -16 23 -40 l20 -44 0 61 c1 33 -5 82 -13
108 -13 44 -13 47 2 41 9 -3 31 -8 47 -11 27 -4 25 -2 -12 15 -35 17 -63 45
-63 65 0 3 19 -2 43 -10 24 -8 53 -12 67 -8 l25 6 -30 11 c-16 5 -36 15 -44
20 -7 6 -19 12 -27 13 -8 1 -29 15 -47 30 -33 28 -143 84 -164 84 -7 0 -13 4
-13 9 0 6 17 8 38 5 l37 -5 -50 27 c-27 15 -51 31 -53 35 -2 5 -12 9 -22 9
-27 0 -34 17 -9 25 26 9 78 -3 61 -14 -8 -5 6 -16 39 -32 34 -15 75 -49 121
-99 49 -52 68 -67 63 -50 -11 36 -62 108 -91 127 -13 8 -22 18 -20 21 7 7 89
-37 104 -56 11 -15 12 -15 12 1 0 23 -57 64 -121 86 -43 16 -48 20 -26 20 30
1 92 29 84 38 -3 2 -14 0 -25 -6 -35 -18 -49 -12 -18 8 39 26 66 70 65 106 0
29 -1 29 -15 -10 -8 -22 -24 -49 -36 -60 l-21 -20 7 20 c4 11 9 34 12 50 4 26
2 25 -15 -12 -23 -48 -50 -69 -105 -79 -36 -6 -39 -5 -31 12 47 109 55 171 30
231 -19 46 -28 39 -14 -11 12 -44 5 -100 -18 -135 -8 -13 -10 -20 -4 -17 15
10 14 -6 -3 -29 -8 -11 -19 -16 -30 -12 -14 6 -16 14 -9 44 15 71 10 176 -10
207 -24 37 -31 28 -11 -13 13 -25 15 -52 12 -112 -3 -44 -9 -83 -14 -87 -11
-10 -107 22 -97 31 11 12 48 8 71 -9 12 -8 22 -11 22 -5 0 16 -35 31 -70 31
-22 0 -29 4 -24 13 4 6 -2 4 -13 -6 -20 -18 -21 -17 -31 13 -16 44 -94 153
-102 140 -6 -10 -11 -3 -44 74 -9 21 -19 36 -22 33 -3 -3 0 -16 7 -29 6 -12
-24 11 -67 53 -73 70 -139 117 -151 106 -2 -3 10 -15 27 -27 52 -37 25 -35
-37 3 -90 54 -175 85 -158 57z m147 -196 c45 -23 155 -111 162 -130 3 -9 6
-25 6 -36 0 -15 -12 -5 -46 37 -28 34 -52 54 -60 51 -7 -3 -16 -2 -18 3 -3 4
-21 8 -41 9 -24 1 -51 13 -82 37 -51 39 -47 43 18 20 30 -11 40 -12 31 -3 -12
12 -16 28 -7 28 4 0 20 -7 37 -16z m-142 -40 c0 33 52 1 76 -47 20 -37 14 -43
-19 -17 -27 22 -42 26 -32 10 15 -25 -15 -6 -50 31 l-40 41 33 -16 c27 -14 32
-14 32 -2z m-131 -8 c13 -5 37 -9 53 -10 16 -1 39 -13 51 -25 l22 -24 -22 6
c-12 3 -24 0 -25 -5 -2 -5 -32 4 -68 21 -71 35 -87 39 -50 14 36 -24 80 -65
80 -76 0 -5 -14 3 -30 17 -17 13 -53 37 -81 53 -47 25 -50 28 -28 33 30 8 66
6 98 -4z m493 -81 c5 -6 8 -4 8 5 0 11 3 11 12 2 15 -15 32 -16 23 -2 -3 6 -2
10 3 10 5 0 17 -18 27 -40 10 -22 22 -37 28 -33 6 4 8 0 4 -11 -4 -10 -7 -23
-7 -29 -1 -7 -12 2 -25 18 -15 17 -25 24 -25 16 0 -11 -4 -10 -13 4 -8 10 -19
15 -25 11 -9 -5 -72 82 -72 101 0 7 49 -34 62 -52z m-593 -30 c75 -31 149 -81
136 -93 -2 -3 -26 10 -53 27 -53 34 -72 40 -52 16 18 -22 5 -18 -42 11 -23 15
-69 40 -102 56 l-61 30 45 -7 c25 -3 83 -21 129 -40z m751 -74 c15 -53 12 -70
-6 -37 -13 22 -18 26 -25 15 -9 -15 -11 -8 -13 58 -1 29 0 30 16 16 10 -9 22
-32 28 -52z m115 -73 c14 -6 25 -16 25 -23 0 -18 -22 -35 -44 -34 -17 1 -18 2
-3 6 9 2 17 8 17 11 0 11 -52 32 -64 26 -6 -3 -2 2 8 10 24 19 28 19 61 4z
m80 -38 c6 -10 -42 -46 -51 -37 -8 8 19 47 33 47 6 0 14 -4 18 -10z m-380 -71
c11 -5 45 -15 75 -23 30 -8 48 -15 40 -16 -8 0 1 -8 20 -17 19 -10 44 -29 55
-43 11 -14 35 -40 52 -58 18 -18 33 -39 33 -46 0 -8 7 -19 14 -26 18 -14 35
-91 41 -183 2 -37 7 -72 10 -77 3 -6 1 -10 -5 -10 -6 0 -8 -5 -4 -11 4 -7 7
-26 6 -42 0 -17 10 -56 23 -88 28 -64 48 -146 40 -159 -3 -4 -24 -2 -48 5 -24
7 -79 16 -123 20 -82 8 -110 18 -181 66 -34 24 -52 29 -95 28 -91 -2 -110 -10
-140 -59 -15 -25 -34 -70 -42 -100 -11 -45 -17 -54 -32 -51 -11 2 -40 5 -66 8
-46 5 -48 6 -48 37 0 37 -41 105 -93 154 -23 23 -52 38 -88 46 l-54 12 33 17
c17 10 32 23 32 30 0 8 3 8 9 -2 6 -9 11 3 16 35 5 27 10 41 12 31 9 -37 23
-3 22 51 -1 47 -3 52 -9 27 -4 -16 -8 -23 -9 -14 -1 18 -31 48 -31 31 0 -6 -8
-9 -17 -8 -9 2 -24 -3 -32 -11 -9 -7 -19 -13 -23 -13 -12 0 -92 -33 -98 -40
-3 -3 -32 -16 -65 -28 -96 -36 -131 -66 -170 -145 -19 -38 -35 -78 -35 -88 0
-31 -12 -49 -32 -49 -19 0 -20 4 -14 52 4 29 16 77 28 108 11 30 21 86 23 124
2 38 8 73 14 79 10 10 51 -60 51 -89 0 -12 6 -8 22 12 12 16 40 49 62 74 23
25 34 39 27 32 -31 -25 -43 -15 -37 31 3 23 8 57 11 76 11 79 98 180 204 234
83 43 137 57 231 61 41 2 89 7 105 11 99 23 234 26 280 4z m447 -124 c23 -15
36 -30 32 -37 -5 -7 -2 -9 8 -5 10 3 27 -6 44 -25 l29 -31 -53 28 c-29 16 -48
31 -42 35 6 4 -13 17 -42 29 -91 38 -98 42 -54 37 21 -3 56 -17 78 -31z m51
-111 c18 -9 40 -23 50 -32 11 -9 17 -11 17 -4 0 7 -4 12 -10 12 -5 0 -10 5
-10 12 0 34 81 -79 94 -132 5 -17 1 -14 -14 12 -12 22 -48 56 -87 84 -38 26
-72 51 -77 56 -16 13 3 9 37 -8z m-1790 -42 c-8 -22 -26 -52 -39 -68 l-24 -29
10 28 c14 39 30 69 48 90 22 24 22 22 5 -21z m1827 -77 c14 -17 11 -18 -23 -6
-13 5 -34 26 -46 46 l-22 37 39 -31 c21 -16 45 -37 52 -46z m-39 -25 c10 -19
16 -36 14 -38 -9 -9 -36 22 -57 62 l-20 40 22 -15 c13 -8 31 -31 41 -49z m-33
-31 c19 -30 3 -46 -19 -18 -10 13 -19 29 -19 36 0 17 23 6 38 -18z m-44 -41
c18 -26 13 -36 -9 -18 -18 15 -19 7 -4 -23 9 -18 9 -20 -1 -10 -14 13 -21 73
-9 73 4 0 15 -10 23 -22z m-947 -50 c-3 -8 -6 -5 -6 6 -1 11 2 17 5 13 3 -3 4
-12 1 -19z m-179 -196 l24 -18 -35 -27 c-47 -36 -117 -39 -117 -5 0 57 79 87
128 50z m120 -126 c15 -8 38 -26 52 -41 24 -26 23 -26 -20 4 -60 42 -116 48
-177 21 -25 -11 -48 -18 -50 -16 -4 4 6 11 67 42 28 15 89 10 128 -10z m695
15 c32 -12 107 -84 107 -102 0 -9 -10 -4 -28 13 -68 67 -74 71 -126 73 -61 4
-80 -3 -125 -45 -39 -36 -50 -34 -25 6 38 56 127 81 197 55z m187 -5 c57 -21
75 -63 74 -176 0 -82 -4 -102 -26 -145 -31 -59 -50 -79 -102 -100 -52 -22
-188 -30 -258 -16 -49 11 -64 19 -102 62 -40 44 -80 119 -56 104 16 -10 11 32
-5 45 -16 13 -18 57 -6 100 l7 25 8 -22 c7 -21 18 -28 39 -24 4 1 3 -8 -3 -19
-7 -13 -7 -20 0 -20 5 0 9 -6 7 -12 -1 -8 11 -14 33 -15 29 -2 31 -1 10 6 -33
9 -36 31 -10 81 34 67 115 103 183 81 63 -21 118 -101 97 -142 -6 -10 -7 -19
-3 -20 4 0 16 -2 26 -4 10 -2 14 1 10 8 -4 6 0 8 10 4 10 -3 17 -2 17 4 0 6 4
7 10 4 5 -3 18 -1 27 4 16 9 15 10 -7 11 l-25 1 28 15 c33 18 34 23 3 17 -20
-4 -26 1 -40 42 -8 26 -27 63 -41 81 l-26 34 43 -1 c24 0 59 -6 78 -13z m460
-18 c11 -18 20 -37 20 -43 0 -5 -5 -2 -11 8 -31 53 -121 -17 -205 -160 -30
-51 -56 -93 -57 -93 -1 0 0 29 1 65 3 48 7 65 18 65 16 0 19 16 4 25 -14 8
-13 35 1 35 6 0 43 29 80 65 83 78 117 85 149 33z m-1562 15 c-13 -29 -52 -83
-59 -83 -24 0 -39 74 -16 83 19 8 79 8 75 0z m-159 -132 c-1 -73 3 -112 16
-145 10 -25 20 -46 22 -46 3 0 16 9 30 20 33 26 52 26 22 0 -15 -12 -17 -18
-7 -14 9 3 41 1 71 -5 73 -13 163 1 246 40 35 16 62 31 59 34 -2 2 -35 -7 -74
-20 -66 -23 -87 -25 -162 -9 -20 4 -22 7 -12 19 15 18 -1 20 -19 3 -9 -9 -12
-9 -7 -1 3 6 0 14 -6 16 -7 3 -2 6 12 7 l25 1 -29 15 c-26 14 -28 20 -23 56
11 85 106 142 194 117 42 -11 112 -75 114 -103 0 -6 2 -21 3 -33 1 -12 -1 -20
-6 -17 -4 3 -8 0 -8 -6 0 -6 10 -10 23 -8 14 2 21 9 21 21 -2 21 12 23 19 2 4
-9 -13 -32 -46 -61 -37 -33 -51 -53 -49 -68 5 -28 22 -47 36 -40 6 3 -7 -10
-29 -30 -51 -45 -124 -68 -223 -68 -76 0 -166 18 -157 32 3 4 -3 14 -13 21
-15 13 -16 12 -3 -3 20 -26 -2 -22 -26 5 -62 66 -87 265 -43 346 22 42 30 20
29 -78z m-267 27 c38 -31 68 -74 68 -97 0 -14 -36 0 -85 33 -44 30 -80 33 -94
9 -9 -16 -10 -14 -11 8 0 33 35 79 61 79 11 0 38 -15 61 -32z m1685 10 c-3 -8
-6 -5 -6 6 -1 11 2 17 5 13 3 -3 4 -12 1 -19z m243 -48 c6 -12 15 -40 20 -63
l8 -42 2 50 c2 41 3 45 10 25 4 -14 8 -43 9 -65 l1 -40 21 40 c30 56 32 56 27
0 -4 -45 -61 -180 -140 -334 -31 -60 -69 -88 -104 -75 -51 17 -69 56 -68 142
1 42 5 96 9 120 l7 43 24 -22 c29 -27 30 -53 4 -86 -26 -33 -25 -45 3 -41 12
2 21 9 20 15 -1 6 11 16 28 23 34 15 76 61 85 95 8 32 -21 70 -69 90 -34 13
-36 17 -25 35 8 12 24 20 41 20 26 0 29 3 23 25 -13 53 40 90 64 45z m-961 -9
c11 -11 25 -39 31 -63 31 -115 113 -217 192 -239 66 -18 204 -15 268 6 99 32
135 71 171 185 9 31 23 55 30 55 19 0 27 -98 30 -370 3 -215 -3 -284 -22 -254
-5 9 -7 -5 -3 -36 l5 -50 -18 35 -17 35 -6 -55 c-4 -30 -8 -44 -9 -30 -2 34
-17 9 -27 -45 l-8 -40 -7 35 -6 35 -3 -30 c-2 -30 -2 -30 -10 -5 -7 22 -8 19
-9 -16 -1 -49 -9 -60 -27 -36 -11 15 -14 11 -26 -33 l-13 -49 -6 34 -6 35 -2
-32 c-1 -21 -8 -37 -21 -45 -11 -7 -20 -23 -20 -35 0 -12 -4 -25 -10 -28 -6
-3 -7 1 -4 12 5 17 5 17 -6 0 -9 -14 -9 -22 -1 -30 19 -19 12 -26 -20 -22
l-30 4 23 -19 c20 -18 21 -19 3 -14 -16 6 -18 5 -7 -7 6 -7 12 -16 12 -20 0
-9 -33 -4 -53 7 -6 4 1 -7 17 -24 17 -18 24 -32 17 -32 -8 0 -11 -6 -7 -16 3
-8 2 -12 -4 -9 -6 3 -10 1 -10 -5 0 -6 -10 -4 -24 5 -28 18 -30 7 -6 -35 12
-23 12 -24 -4 -11 -16 13 -17 12 -10 -14 5 -20 4 -26 -5 -21 -6 4 -11 2 -11
-5 0 -7 -6 -4 -14 6 -13 18 -14 18 -9 -9 5 -23 3 -27 -8 -20 -29 17 -38 13
-28 -13 14 -37 11 -38 -12 -9 -12 15 -24 25 -27 22 -2 -3 1 -12 8 -21 15 -18
7 -19 -22 -4 -19 10 -20 9 -15 -10 4 -18 3 -20 -9 -10 -11 9 -14 8 -14 -7 -1
-18 -1 -18 -15 0 -8 11 -15 14 -15 7 0 -7 -5 -9 -12 -5 -8 5 -9 2 -5 -10 4 -9
3 -15 -1 -12 -5 3 -21 35 -36 70 -16 36 -32 63 -37 60 -5 -3 -9 1 -9 8 0 10
-3 9 -9 -1 -7 -11 -12 -6 -19 20 -7 24 -10 28 -11 12 -1 -33 -21 -38 -22 -6
l-2 28 -4 -27 c-3 -17 -9 -25 -17 -22 -9 3 -23 -18 -41 -60 -15 -36 -32 -63
-37 -60 -4 3 -5 11 -1 17 3 7 -4 3 -17 -8 -13 -11 -20 -14 -16 -7 4 6 2 13 -3
13 -6 1 -17 2 -23 3 -7 1 -12 10 -12 19 1 10 -1 16 -4 13 -3 -3 -11 -1 -19 5
-10 9 -18 8 -30 -2 -15 -11 -16 -11 -5 1 17 20 15 35 -3 20 -13 -11 -14 -10
-9 4 3 9 1 16 -6 16 -6 0 -8 5 -4 12 5 8 2 9 -10 5 -10 -4 -15 -3 -11 3 3 6 2
10 -4 10 -6 0 -8 7 -5 15 4 11 2 13 -9 9 -10 -4 -15 0 -14 13 1 10 -3 17 -10
16 -7 -2 -10 6 -8 18 4 17 0 20 -16 16 -17 -5 -20 -2 -16 14 3 10 1 19 -4 19
-4 0 -5 8 -2 17 5 13 2 15 -12 10 -15 -6 -16 -5 -6 7 14 17 0 29 -23 20 -12
-5 -15 -2 -10 10 3 9 1 16 -5 16 -6 0 -8 7 -5 15 4 8 2 15 -4 15 -5 0 -13 11
-16 25 -4 14 -10 23 -15 20 -5 -2 -12 3 -16 12 -3 10 -1 19 4 21 6 2 11 8 11
13 0 21 -123 226 -151 252 -24 21 -30 34 -27 60 4 44 20 40 34 -8 7 -22 13
-32 13 -21 1 29 28 2 37 -37 8 -40 53 -131 61 -124 3 4 0 20 -5 37 -12 32 -1
80 17 80 20 0 96 -87 156 -178 74 -114 102 -143 170 -173 64 -29 208 -32 269
-6 22 10 37 19 35 21 -2 2 -29 0 -59 -5 -120 -21 -242 10 -313 79 -67 64 -65
75 5 42 37 -17 86 -31 118 -33 30 -3 44 -2 30 0 -14 3 -31 10 -39 16 -8 7 -23
11 -33 9 -11 -2 -27 3 -36 12 -10 8 -21 14 -25 13 -12 -3 -87 114 -87 136 0
12 4 16 13 10 6 -4 19 -6 28 -5 9 2 19 -5 23 -14 5 -13 9 -14 21 -4 16 14 55
4 71 -18 8 -11 13 -12 18 -4 10 17 78 15 104 -4 20 -14 24 -14 38 0 19 20 58
30 85 23 13 -3 28 1 37 9 8 8 26 14 41 12 14 -2 31 3 36 10 6 7 20 14 33 17
12 2 27 7 32 10 14 9 13 -51 -2 -78 -14 -27 -70 -88 -76 -83 -2 3 -13 -5 -24
-16 -11 -11 -28 -18 -38 -15 -11 3 -21 -1 -24 -9 -7 -19 8 -17 57 7 66 34 111
74 193 170 81 96 109 118 127 100 7 -7 15 -7 25 2 13 10 14 4 9 -48 l-7 -60
19 50 c11 28 20 75 21 105 l1 55 19 -24 c18 -21 20 -21 20 -4 0 11 -6 27 -12
35 -15 20 -319 168 -366 179 -33 7 -33 7 -15 -13 12 -13 18 -36 18 -64 0 -53
-14 -71 -45 -54 -28 15 -60 7 -102 -27 -19 -16 -27 -19 -18 -9 14 18 13 19 -5
12 -77 -29 -157 -10 -223 52 -26 24 -32 37 -27 54 6 22 5 22 -6 3 -18 -31 -40
-45 -71 -45 -23 0 -28 4 -28 26 0 25 48 84 69 84 6 0 19 -9 29 -20 l19 -21 13
31 c10 24 10 33 0 45 -18 21 -36 19 -57 -9 -10 -13 -75 -54 -145 -90 -113 -58
-135 -66 -183 -66 -31 0 -69 7 -86 16 -17 8 -37 13 -44 11 -14 -6 -35 -81 -35
-129 0 -64 -16 -62 -33 4 -11 44 -16 112 -16 225 -1 89 -4 170 -8 180 -12 35
6 7 41 -62 33 -66 34 -71 18 -90 -17 -20 -17 -20 4 -2 21 17 23 17 70 -2 136
-53 361 -28 444 51 26 24 46 28 68 15 6 -5 12 -4 12 2 0 6 5 57 11 113 8 83
14 106 31 121 27 23 63 22 87 -2z m-985 -111 c-7 -55 4 -64 37 -34 10 9 25 14
34 10 13 -5 8 -14 -24 -44 -49 -46 -52 -77 -16 -141 28 -49 29 -51 15 -51 -5
0 -23 19 -40 42 -28 39 -30 46 -30 139 0 99 5 129 21 129 6 0 7 -21 3 -50z
m846 -54 c0 -3 -4 -8 -10 -11 -5 -3 -10 -1 -10 4 0 6 5 11 10 11 6 0 10 -2 10
-4z m-870 -156 c0 -13 -1 -13 -11 0 -16 24 -59 109 -59 117 0 4 16 -17 35 -47
19 -30 35 -61 35 -70z m181 9 c-6 -17 -8 -36 -5 -43 3 -6 -1 -3 -10 7 -14 19
-12 40 7 65 16 20 20 6 8 -29z m1161 -115 c68 -44 97 -69 88 -74 -7 -4 -9 -13
-5 -21 6 -9 3 -11 -10 -5 -24 9 -37 -12 -23 -38 11 -20 10 -20 -9 -3 -26 22
-40 22 -53 -3 -8 -15 -17 -19 -31 -15 -46 15 -71 16 -63 3 5 -8 1 -7 -11 2
-15 12 -19 12 -23 2 -3 -10 -9 -9 -23 4 -19 17 -20 17 -13 -1 5 -13 4 -16 -4
-11 -7 4 -12 2 -12 -4 0 -6 -5 -8 -12 -3 -19 11 -39 13 -32 2 3 -5 -3 -9 -14
-9 -10 0 -22 -3 -25 -6 -4 -4 -20 -8 -37 -9 -26 -2 -29 0 -18 12 20 24 111 73
137 73 13 0 38 15 58 35 34 34 35 38 30 85 -3 28 -4 50 -1 50 3 0 51 -30 106
-66z m-1202 31 c10 -12 10 -15 -3 -15 -17 0 -32 -34 -22 -50 9 -14 38 -13 54
3 10 10 12 6 9 -17 -2 -17 -14 -37 -30 -49 -26 -20 -28 -20 -47 -3 -11 10 -24
30 -29 45 -8 23 -6 30 9 39 11 7 19 23 19 37 0 28 21 33 40 10z m514 -67 c-4
-29 -13 -65 -21 -80 -14 -29 -33 -37 -33 -15 0 8 -4 7 -10 -3 -5 -8 -10 -10
-10 -5 0 6 -9 16 -20 23 -16 10 -28 9 -62 -3 -23 -8 -44 -12 -46 -10 -3 2 23
21 58 42 34 21 80 53 103 70 23 18 43 33 45 33 1 0 0 -24 -4 -52z m649 -198
c4 0 6 3 4 8 -3 4 9 8 26 8 30 1 29 0 -15 -22 -92 -47 -304 -85 -372 -68 -34
8 -33 21 2 22 15 0 29 1 32 2 3 1 21 3 40 5 19 1 55 6 80 10 25 4 51 7 58 8 6
0 12 4 12 8 0 4 11 6 25 3 14 -2 25 0 25 5 0 6 6 8 13 5 8 -3 20 2 27 11 9 11
16 13 24 5 5 -5 14 -10 19 -10z m434 -122 c-3 -7 -5 -2 -5 12 0 14 2 19 5 13
2 -7 2 -19 0 -25z m-1340 -40 c-3 -8 -6 -5 -6 6 -1 11 2 17 5 13 3 -3 4 -12 1
-19z m30 -40 c-3 -7 -5 -2 -5 12 0 14 2 19 5 13 2 -7 2 -19 0 -25z m72 -75 c0
-25 -1 -26 -9 -8 -12 27 -12 35 0 35 6 0 10 -12 9 -27z m1057 -305 c22 -24 68
-76 102 -116 l62 -73 0 -101 c0 -56 -3 -98 -6 -95 -4 4 -6 42 -5 84 1 44 -3
85 -10 93 -8 11 -9 -6 -5 -68 l5 -82 -30 22 c-17 13 -25 24 -20 26 6 2 11 19
11 37 0 24 -7 39 -25 53 -27 22 -32 38 -13 44 24 8 -8 58 -37 58 -29 0 -31 7
-10 30 15 16 11 22 -36 74 -59 65 -43 77 17 14z m-595 -54 c-5 -16 -10 -21
-10 -12 -1 18 10 51 15 45 2 -1 -1 -16 -5 -33z m109 -15 c0 -11 4 -18 9 -15
10 6 31 -37 31 -62 -1 -10 -6 -4 -14 13 l-13 30 -11 -30 -12 -30 5 30 c3 17 1
45 -4 63 -6 20 -6 30 0 27 5 -4 9 -15 9 -26z m321 -299 c8 11 9 6 3 -20 -4
-19 -7 -45 -8 -57 -1 -12 -3 -19 -5 -17 -4 4 -31 -42 -72 -123 -12 -23 -44
-36 -112 -48 l-37 -6 6 43 c3 24 15 72 25 107 23 76 23 85 2 46 -18 -33 -83
-218 -78 -223 2 -2 28 4 59 13 68 20 94 15 48 -9 -18 -9 -30 -21 -27 -26 3 -5
0 -12 -6 -16 -8 -4 -9 -3 -5 4 10 16 1 15 -35 -3 -17 -9 -27 -21 -23 -27 4 -6
3 -8 -4 -4 -6 3 -13 2 -17 -4 -3 -6 -23 -19 -44 -30 l-38 -19 -54 36 c-30 19
-56 38 -59 42 -3 4 -21 17 -40 29 l-35 22 31 -6 c26 -5 32 -2 37 15 6 23 27
20 61 -8 18 -15 18 -15 12 15 -6 27 -3 34 29 58 30 24 85 94 85 111 0 3 -13 5
-30 5 -45 0 -37 22 28 77 75 63 112 88 142 98 33 10 48 22 82 69 15 21 28 36
28 32 0 -4 8 0 18 10 16 17 17 12 20 -92 2 -79 6 -105 13 -94z m758 -127 c6
-4 -28 -65 -52 -95 l-19 -23 6 47 c4 34 1 49 -9 58 -22 18 -63 15 -85 -5 -19
-18 -20 -17 -20 12 0 16 -6 36 -12 45 -18 21 -76 40 -84 27 -4 -6 -11 -1 -18
11 -6 12 -33 34 -60 49 -27 14 -48 30 -47 34 0 4 1 16 1 27 0 16 29 4 198 -82
108 -56 199 -103 201 -105z m-1824 147 c-12 -20 -272 -156 -281 -147 -2 2 42
27 99 55 56 28 120 62 142 76 47 29 48 29 40 16z m1865 -170 c13 -8 11 -14
-13 -35 -15 -14 -34 -37 -43 -51 -28 -42 -26 -19 3 40 29 60 30 61 53 46z
m-2215 -38 c-6 -4 -26 -21 -45 -37 l-35 -30 34 38 c19 20 39 37 45 37 6 0 6
-3 1 -8z m-102 -107 c-3 -9 -8 -14 -10 -11 -3 3 -2 9 2 15 9 16 15 13 8 -4z
m831 -64 c-2 -3 -12 3 -22 13 -16 17 -16 18 5 5 12 -7 20 -15 17 -18z m510 -6
c-19 -14 -34 -11 -34 6 0 6 5 7 10 4 6 -3 10 -1 10 5 0 6 5 8 10 5 6 -3 10 0
11 7 0 11 2 11 6 0 3 -7 -3 -19 -13 -27z m-319 -13 c-3 -3 -11 0 -18 7 -9 10
-8 11 6 5 10 -3 15 -9 12 -12z m277 -14 c-9 -9 -12 -7 -12 12 0 19 3 21 12 12
9 -9 9 -15 0 -24z m-29 4 c4 9 6 9 6 1 2 -20 -16 -24 -30 -5 -13 15 -12 16 3
4 13 -10 17 -10 21 0z m-176 -67 c8 -23 0 -24 -19 -3 -15 15 -16 18 -3 18 9 0
18 -7 22 -15z"/>
<path d="M2134 2772 c-35 -24 -42 -131 -8 -118 8 3 12 2 9 -3 -10 -17 39 -60
75 -66 19 -3 67 -10 105 -16 89 -13 146 -29 166 -46 8 -7 21 -13 28 -13 6 0
32 -20 56 -45 51 -50 56 -43 20 33 -36 77 -117 153 -186 175 -31 9 -64 17 -75
17 -14 0 -16 2 -6 9 9 5 -2 12 -35 21 -26 7 -54 17 -60 23 -7 5 -19 7 -27 4
-11 -4 -13 -1 -9 11 3 9 3 14 -2 10 -4 -4 -15 -3 -24 2 -10 5 -22 6 -27 2z"/>
<path d="M2241 2254 c-12 -15 -21 -40 -21 -55 l0 -29 79 0 c70 0 80 2 86 20 7
21 -9 58 -34 77 -9 7 -33 13 -53 13 -28 0 -41 -6 -57 -26z m99 -9 c0 -8 -7
-15 -15 -15 -8 0 -15 7 -15 15 0 8 7 15 15 15 8 0 15 -7 15 -15z"/>
<path d="M2155 2134 c61 -47 99 -59 192 -59 75 0 96 3 110 18 17 17 16 17 -17
12 -19 -4 -43 -8 -53 -10 -9 -2 -15 1 -11 6 3 5 -5 9 -18 9 -13 0 -55 9 -93
20 -38 11 -83 20 -100 20 -29 -1 -29 -1 -10 -16z"/>
<path d="M1634 2272 c-33 -5 -56 -37 -56 -77 0 -20 2 -38 5 -41 2 -2 36 -1 76
2 l71 7 0 37 c0 21 -6 42 -13 48 -20 17 -60 28 -83 24z m66 -31 c0 -5 -7 -11
-15 -15 -9 -3 -15 0 -15 9 0 8 7 15 15 15 8 0 15 -4 15 -9z"/>
<path d="M2955 1945 c-14 -20 -25 -43 -23 -53 3 -11 13 0 31 36 15 28 26 52
23 52 -2 0 -16 -16 -31 -35z"/>
<path d="M2572 1375 c0 -16 2 -22 5 -12 2 9 2 23 0 30 -3 6 -5 -1 -5 -18z"/>
<path d="M1980 1300 c-19 -6 -12 -8 29 -9 30 -1 52 1 50 3 -11 9 -57 13 -79 6z"/>
<path d="M2078 1303 c7 -3 16 -2 19 1 4 3 -2 6 -13 5 -11 0 -14 -3 -6 -6z"/>
<path d="M1740 1201 c12 -21 39 -57 60 -80 l39 -42 60 5 c34 3 61 1 61 -4 0
-5 12 -6 28 -4 15 3 35 6 45 7 9 1 17 6 17 12 0 6 9 12 20 13 44 4 50 6 50 14
0 5 5 6 10 3 6 -3 10 -2 10 4 0 5 11 23 25 39 l25 30 -43 -15 c-105 -38 -270
-25 -364 28 -29 16 -55 29 -58 29 -4 0 4 -17 15 -39z"/>
<path d="M2370 1066 c0 -2 7 -7 16 -10 8 -3 12 -2 9 4 -6 10 -25 14 -25 6z"/>
<path d="M2056 1633 c-6 -14 -5 -15 5 -6 7 7 10 15 7 18 -3 3 -9 -2 -12 -12z"/>
<path d="M3228 3743 c7 -3 16 -2 19 1 4 3 -2 6 -13 5 -11 0 -14 -3 -6 -6z"/>
<path d="M456 3615 c4 -8 8 -15 10 -15 2 0 4 7 4 15 0 8 -4 15 -10 15 -5 0 -7
-7 -4 -15z"/>
<path d="M3361 3576 c-7 -8 -8 -17 -3 -20 6 -3 12 3 15 14 6 24 4 25 -12 6z"/>
<path d="M3510 3570 c0 -5 7 -10 15 -10 8 0 15 5 15 10 0 6 -7 10 -15 10 -8 0
-15 -4 -15 -10z"/>
<path d="M396 3555 c5 -13 9 -13 23 -3 9 7 18 14 20 15 2 2 -8 3 -22 3 -20 0
-25 -4 -21 -15z"/>
<path d="M367 3527 c-11 -29 -9 -43 4 -30 6 6 9 19 7 29 -3 18 -4 18 -11 1z"/>
<path d="M3520 3461 c0 -12 5 -21 10 -21 6 0 10 6 10 14 0 8 -4 18 -10 21 -5
3 -10 -3 -10 -14z"/>
<path d="M3660 3286 c0 -9 5 -16 10 -16 6 0 10 4 10 9 0 6 -4 13 -10 16 -5 3
-10 -1 -10 -9z"/>
<path d="M230 3260 c0 -5 5 -10 10 -10 6 0 10 5 10 10 0 6 -4 10 -10 10 -5 0
-10 -4 -10 -10z"/>
<path d="M3928 3073 c-18 -3 -25 -9 -21 -19 4 -10 -4 -14 -31 -14 -29 0 -36
-4 -36 -20 0 -14 7 -20 23 -20 12 0 28 -4 35 -9 10 -6 9 -10 -7 -14 -12 -3
-21 -13 -20 -24 1 -16 2 -16 6 0 11 43 33 -1 35 -72 1 -23 6 -31 20 -31 10 0
18 -7 18 -15 0 -8 -8 -15 -18 -15 -26 0 -42 -20 -42 -52 0 -25 3 -28 35 -28
l35 0 0 170 c0 94 -1 169 -2 169 -2 -1 -15 -4 -30 -6z"/>
<path d="M160 3035 c0 -8 7 -15 15 -15 8 0 15 7 15 15 0 8 -7 15 -15 15 -8 0
-15 -7 -15 -15z"/>
<path d="M100 2835 c0 -8 5 -15 10 -15 6 0 10 -16 10 -35 0 -43 16 -46 25 -5
4 16 11 32 16 35 23 15 8 35 -26 35 -24 0 -35 -5 -35 -15z"/>
<path d="M3890 2700 c0 -5 5 -10 10 -10 6 0 10 5 10 10 0 6 -4 10 -10 10 -5 0
-10 -4 -10 -10z"/>
<path d="M3 2535 c0 -22 2 -30 4 -17 2 12 2 30 0 40 -3 9 -5 -1 -4 -23z"/>
<path d="M3925 2547 c-4 -10 -5 -21 -1 -24 10 -10 18 4 13 24 -4 17 -4 17 -12
0z"/>
<path d="M3951 2534 c0 -11 3 -14 6 -6 3 7 2 16 -1 19 -3 4 -6 -2 -5 -13z"/>
<path d="M3 2415 c0 -38 2 -53 4 -32 2 20 2 52 0 70 -2 17 -4 1 -4 -38z"/>
<path d="M3 2035 c0 -22 2 -30 4 -17 2 12 2 30 0 40 -3 9 -5 -1 -4 -23z"/>
<path d="M1918 13 c6 -2 18 -2 25 0 6 3 1 5 -13 5 -14 0 -19 -2 -12 -5z"/>
<path d="M2000 10 c-23 -7 -22 -8 10 -8 19 0 44 3 55 8 17 7 15 9 -10 8 -16 0
-41 -4 -55 -8z"/>
<path d="M2560 10 c-11 -7 -7 -10 18 -10 20 0 31 4 27 10 -8 13 -26 13 -45 0z"/>
</g>
</svg>
